# xmcd CD database file
#
# Track frame offsets:
#	182
#	13885
#	27885
#
# Disc length: 667 seconds
#
# Revision: 2
# Processed by: cddbd v1.4b41PL1 Copyright (c) Steve Scherf et al.
# Submitted via: Feurio! 1.50.2ß - http://www.feurio.com
#
DISCID=1b029903
DTITLE=Megacity Four - Iron Sky
DYEAR=1900
DGENRE=
TTITLE0=Iron Sky
TTITLE1=On The Edge
TTITLE2=Sometimes
EXTD=
EXTT0=
EXTT1=
EXTT2=
PLAYORDER=
